<svg xmlns="http://www.w3.org/2000/svg" viewBox="0 0 64 64">
  <title>Livingood Wellness Center</title>
  <defs>
    <linearGradient id="lw" gradientUnits="userSpaceOnUse" x1="5" y1="12" x2="31" y2="31">
      <stop offset="0" stop-color="#A63F2A"/>
      <stop offset="0.07" stop-color="#E2743A"/>
      <stop offset="0.2" stop-color="#F0C346"/>
      <stop offset="0.36" stop-color="#B9D24C"/>
      <stop offset="0.52" stop-color="#6DBE5E"/>
      <stop offset="0.68" stop-color="#8ED2C4"/>
      <stop offset="0.84" stop-color="#4E9EDC"/>
      <stop offset="1" stop-color="#2F6CC4"/>
    </linearGradient>
    <linearGradient id="lh" gradientUnits="userSpaceOnUse" x1="20" y1="31" x2="20" y2="51">
      <stop offset="0" stop-color="#4E9EDC" stop-opacity="0"/>
      <stop offset="0.3" stop-color="#3F86D4" stop-opacity="0.9"/>
      <stop offset="0.55" stop-color="#2F6CC4"/>
      <stop offset="0.8" stop-color="#2A4EB2"/>
      <stop offset="1" stop-color="#1D3585"/>
    </linearGradient>
    <linearGradient id="rw" gradientUnits="userSpaceOnUse" x1="59" y1="12" x2="33" y2="31">
      <stop offset="0" stop-color="#2E97A6"/>
      <stop offset="0.2" stop-color="#5CC6D2"/>
      <stop offset="0.45" stop-color="#84D9E2"/>
      <stop offset="0.75" stop-color="#3F8ED4"/>
      <stop offset="1" stop-color="#2F6CC4"/>
    </linearGradient>
    <linearGradient id="rh" gradientUnits="userSpaceOnUse" x1="44" y1="32" x2="44" y2="51">
      <stop offset="0" stop-color="#9AA0DE" stop-opacity="0"/>
      <stop offset="0.25" stop-color="#9AA0DE" stop-opacity="0.9"/>
      <stop offset="0.45" stop-color="#9C4FB3"/>
      <stop offset="0.65" stop-color="#C2207F"/>
      <stop offset="0.88" stop-color="#A5125E"/>
      <stop offset="1" stop-color="#77204B"/>
    </linearGradient>
    <radialGradient id="edge" cx="0.5" cy="0.5" r="0.6">
      <stop offset="0.6" stop-color="#0B1440" stop-opacity="0"/>
      <stop offset="1" stop-color="#0B1440" stop-opacity="0.3"/>
    </radialGradient>
    <radialGradient id="spot">
      <stop offset="0" stop-color="#fff" stop-opacity="0.45"/>
      <stop offset="1" stop-color="#fff" stop-opacity="0"/>
    </radialGradient>
    <!-- wing silhouettes, one continuous shape per side with scalloped margins -->
    <path id="ls" d="M31.5 27.5 C26 21 15 13.5 5 12.5 Q3.6 14 4.5 17 Q3.7 18.9 5.5 22 Q4.7 23.9 6.5 26.5 Q5.9 28.3 8 30.5 Q7.6 31.7 10 33 C10.5 34 9.5 34.5 9 35.5 Q7.1 37.8 8 39.5 Q7.2 42 9 43.5 Q9.1 46.2 11.5 47.5 Q12.2 49.9 15 50.5 Q16.2 53.1 19 53.5 Q20.7 56 23.5 56 L31.5 46 Z"/>
    <path id="rs" d="M32.5 27.5 C38 21 49 13.5 59 12.5 Q60.4 14 59.5 17 Q60.3 18.9 58.5 22 Q59.3 23.9 57.5 26.5 Q58.1 28.3 56 30.5 Q56.4 31.7 54 33 C53.5 34 54.5 34.5 55 35.5 Q56.9 37.8 56 39.5 Q56.8 42 55 43.5 Q54.9 46.2 52.5 47.5 Q51.8 49.9 49 50.5 Q47.8 53.1 45 53.5 Q43.3 56 40.5 56 L32.5 46 Z"/>
  </defs>
  <circle cx="32" cy="32" r="32" fill="#E8EBB2"/>
  <g transform="translate(32 32) scale(0.88) translate(-32 -32)">
    <g transform="rotate(30 32 32) translate(32 32) scale(0.94) translate(-32 -32)">
      <!-- forewing colour along each wing -->
      <use href="#ls" fill="url(#lw)"/>
      <use href="#rs" fill="url(#rw)"/>
      <!-- hindwing colour, fading in below the forewing so there is no seam -->
      <use href="#ls" fill="url(#lh)"/>
      <use href="#rs" fill="url(#rh)"/>
      <!-- pooled watercolour edges -->
      <use href="#ls" fill="url(#edge)"/>
      <use href="#rs" fill="url(#edge)"/>
      <!-- veins -->
      <path d="M32 29.5 Q19 20.6 6 14 M32 29.5 Q18.8 23.6 5.5 20 M32 29.5 Q19.5 26.8 7 26.5 M32 29.5 Q20.8 29.6 9.5 32 M32 40.5 Q20.8 39.8 9.5 37.5 M32 40.5 Q21 43.3 10 44.5 M32 40.5 Q23.8 46.5 15.5 51 M32 40.5 Q27 48.5 22 55 M32 29.5 Q45 20.6 58 14 M32 29.5 Q45.2 23.6 58.5 20 M32 29.5 Q44.5 26.8 57 26.5 M32 29.5 Q43.2 29.6 54.5 32 M32 40.5 Q43.2 39.8 54.5 37.5 M32 40.5 Q43 43.3 54 44.5 M32 40.5 Q40.2 46.5 48.5 51 M32 40.5 Q37 48.5 42 55" fill="none" stroke="#0B1440" stroke-opacity="0.16" stroke-width="0.5" stroke-linecap="round"/>
      <!-- lighter patches -->
      <g fill="url(#spot)">
        <ellipse cx="17" cy="25" rx="5.5" ry="3.2"/>
        <ellipse cx="16" cy="41" rx="4" ry="2.6"/>
        <ellipse cx="50" cy="21" rx="4.5" ry="2.8"/>
        <ellipse cx="47" cy="29" rx="3" ry="2"/>
        <ellipse cx="41" cy="42" rx="3.4" ry="2.2"/>
      </g>
      <g fill="#3A1030" opacity="0.45">
        <circle cx="39.5" cy="49" r="0.7"/><circle cx="44" cy="48" r="0.7"/><circle cx="47.5" cy="45" r="0.7"/>
      </g>
      <!-- body -->
      <g stroke="#164E3E" stroke-linecap="round" fill="none">
        <path d="M31.3 25c-1.8-3-4.2-6-7.3-8.2M32.7 25c1.8-3 4.2-6 7.3-8.2" stroke-width="0.8"/>
        <line x1="32" y1="27" x2="32" y2="47" stroke-width="2"/>
      </g>
      <circle cx="32" cy="26" r="1.6" fill="#164E3E"/>
    </g>
  </g>
</svg>
