<svg xmlns="http://www.w3.org/2000/svg" viewBox="0 0 64 64"><title>Livingood Wellness Center</title><rect width="64" height="64" rx="16" fill="#2f7d3f"/><g transform="translate(6 6) scale(0.8125)"><ellipse cx="21" cy="43" rx="9.5" ry="11.5" transform="rotate(24 21 43)" fill="#f3a978"/><ellipse cx="43" cy="43" rx="9.5" ry="11.5" transform="rotate(-24 43 43)" fill="#f3a978"/><ellipse cx="18" cy="26" rx="13" ry="16.5" transform="rotate(-28 18 26)" fill="#fbf7ea"/><ellipse cx="46" cy="26" rx="13" ry="16.5" transform="rotate(28 46 26)" fill="#fbf7ea"/><ellipse cx="17" cy="25" rx="4" ry="6" transform="rotate(-28 17 25)" fill="#2f7d3f" opacity="0.45"/><ellipse cx="47" cy="25" rx="4" ry="6" transform="rotate(28 47 25)" fill="#2f7d3f" opacity="0.45"/><rect x="30.25" y="17" width="3.5" height="31" rx="1.75" fill="#fbf7ea"/><path d="M31 17c-1-4-4-7-8-9M33 17c1-4 4-7 8-9" stroke="#fbf7ea" stroke-width="1.6" stroke-linecap="round" fill="none"/><circle cx="22.6" cy="7.6" r="1.7" fill="#f3a978"/><circle cx="41.4" cy="7.6" r="1.7" fill="#f3a978"/></g></svg>
