<svg xmlns="http://www.w3.org/2000/svg" viewBox="0 0 64 64">
  <title>Livingood Wellness Center</title>
  <defs>
    <linearGradient id="lf" gradientUnits="userSpaceOnUse" x1="12" y1="6" x2="31" y2="34">
      <stop offset="0" stop-color="#F09A3A"/>
      <stop offset="0.2" stop-color="#F3D24C"/>
      <stop offset="0.48" stop-color="#7BC24A"/>
      <stop offset="0.76" stop-color="#3B9BDA"/>
      <stop offset="1" stop-color="#2F6ACB"/>
    </linearGradient>
    <linearGradient id="rf" gradientUnits="userSpaceOnUse" x1="59" y1="20" x2="33" y2="32">
      <stop offset="0" stop-color="#B0E8EE"/>
      <stop offset="0.45" stop-color="#3EBBD2"/>
      <stop offset="1" stop-color="#2C7ACF"/>
    </linearGradient>
    <linearGradient id="lh" gradientUnits="userSpaceOnUse" x1="12" y1="52" x2="31" y2="38">
      <stop offset="0" stop-color="#2955C0"/>
      <stop offset="0.55" stop-color="#4C8BE0"/>
      <stop offset="1" stop-color="#96B6EC"/>
    </linearGradient>
    <linearGradient id="rh" gradientUnits="userSpaceOnUse" x1="52" y1="54" x2="33" y2="38">
      <stop offset="0" stop-color="#C21C77"/>
      <stop offset="0.45" stop-color="#E9579E"/>
      <stop offset="1" stop-color="#8D5BC6"/>
    </linearGradient>
    <radialGradient id="wash" cx="0.42" cy="0.5" r="0.55">
      <stop offset="0" stop-color="#FFFFFF" stop-opacity="0.4"/>
      <stop offset="1" stop-color="#FFFFFF" stop-opacity="0"/>
    </radialGradient>
  </defs>
  <circle cx="32" cy="32" r="32" fill="#E8EBB2"/>
  <g transform="translate(32 32) scale(0.86) rotate(30) scale(0.94) translate(-32 -32)">
    <path id="lhw" d="M31.5 33c-7.5-1-19.5 3-21.5 11-2 10 10 14 17 8 3-3 4.5-6 4.5-10Z" fill="url(#lh)"/>
    <path id="rhw" d="M32.5 33c7.5-1 19.5 3 21.5 11 2 10-10 14-17 8-3-3-4.5-6-4.5-10Z" fill="url(#rh)"/>
    <path id="lfw" d="M31.5 26c-3.5-8-13.5-21-19.5-20-7 1-10 12-7 20 4 9 17 12 26 10Z" fill="url(#lf)"/>
    <path id="rfw" d="M32.5 26c3.5-8 13.5-21 19.5-20 7 1 10 12 7 20-4 9-17 12-26 10Z" fill="url(#rf)"/>
    <g fill="url(#wash)">
      <use href="#lhw"/><use href="#rhw"/><use href="#lfw"/><use href="#rfw"/>
    </g>
    <g fill="#164E3E">
      <path d="M31.3 22c-2-5-4.5-8.5-7.5-10.5M32.7 22c2-5 4.5-8.5 7.5-10.5" fill="none" stroke="#164E3E" stroke-width="1.4" stroke-linecap="round"/>
      <circle cx="23.5" cy="11.2" r="1.3"/>
      <circle cx="40.5" cy="11.2" r="1.3"/>
      <circle cx="32" cy="23.6" r="1.9"/>
      <rect x="30.9" y="24.8" width="2.2" height="21" rx="1.1"/>
    </g>
  </g>
</svg>
